# xmcd CD database file
#
# Track frame offsets:
#	150
#	19399
#	42709
#	58401
#	78574
#	92337
#	120632
#	144048
#	159889
#	173920
#	212648
#	250548
#	270024
#
# Disc length: 3912 seconds
#
# Revision: 0
# Processed by: cddbd v1.5.2PL0 Copyright (c) Steve Scherf et al.
# Submitted via: CDex 1.70beta2
#
DISCID=a30f460d
DTITLE=Mike Bloomfield, Charlie Musselwhite ..... - SWEET HOME CHICAGO
DYEAR=2005
DGENRE=Blues
TTITLE0=Sweet Home Chicago
TTITLE1=Big Boss Man
TTITLE2=You Got Me Cryin'
TTITLE3=Hello Josephine
TTITLE4=Brown Sugar
TTITLE5=Long Hard Journey
TTITLE6=More Soul
TTITLE7=Directly From My Heart
TTITLE8=I'm Losin' You
TTITLE9=Messa Da' Blues
TTITLE10=I Got To Love My Woman
TTITLE11=Woke Up This Mornin'
TTITLE12=Low Down Funk
EXTD=YEAR: 2005
EXTT0=
EXTT1=
EXTT2=
EXTT3=
EXTT4=
EXTT5=
EXTT6=
EXTT7=
EXTT8=
EXTT9=
EXTT10=
EXTT11=
EXTT12=
PLAYORDER=
